<svg width="178" height="32" viewBox="0 0 178 32" fill="none" xmlns="http://www.w3.org/2000/svg">
<path d="M178 6.32H4.5L4 7.32L0 21.32H175L178 6.32Z" fill="#0DB6FF"/>
<path d="M6.928 24.32L11.76 1.472H15.792L13.872 10.688H21.552L23.472 1.472H27.504L22.672 24.32H18.64L20.752 14.176H13.104L10.96 24.32H6.928Z" fill="black"/>
<path d="M26.165 24.32L29.845 6.976H33.845L30.165 24.32H26.165ZM32.597 4.544C32.021 4.544 31.541 4.40533 31.157 4.128C30.773 3.85067 30.581 3.40267 30.581 2.784C30.581 2.272 30.677 1.83467 30.869 1.472C31.0823 1.088 31.3703 0.8 31.733 0.608C32.117 0.394667 32.565 0.288 33.077 0.288C33.653 0.288 34.133 0.426667 34.517 0.704C34.901 0.960001 35.093 1.38667 35.093 1.984C35.093 2.752 34.8797 3.37067 34.453 3.84C34.0263 4.30933 33.4077 4.544 32.597 4.544Z" fill="black"/>
<path d="M38.339 32C37.2083 32 36.227 31.8933 35.395 31.68C34.563 31.488 33.8057 31.2213 33.123 30.88L33.155 27.36C33.6243 27.616 34.1257 27.84 34.659 28.032C35.1923 28.2453 35.7577 28.4053 36.355 28.512C36.9737 28.64 37.5923 28.704 38.211 28.704C39.299 28.704 40.195 28.4267 40.899 27.872C41.603 27.3173 42.1043 26.432 42.403 25.216L42.595 24.448C42.659 24.1067 42.7443 23.744 42.851 23.36C42.9577 22.9547 43.0537 22.6027 43.139 22.304C43.2243 21.984 43.2883 21.7707 43.331 21.664H43.203C42.819 22.1973 42.3923 22.688 41.923 23.136C41.475 23.584 40.963 23.9467 40.387 24.224C39.8323 24.5013 39.203 24.64 38.499 24.64C37.667 24.64 36.9203 24.4267 36.259 24C35.5977 23.552 35.075 22.88 34.691 21.984C34.307 21.088 34.115 19.9573 34.115 18.592C34.115 17.4187 34.2323 16.256 34.467 15.104C34.7017 13.952 35.043 12.8747 35.491 11.872C35.939 10.848 36.483 9.94133 37.123 9.152C37.763 8.36267 38.4883 7.75467 39.299 7.328C40.1097 6.88 40.995 6.656 41.955 6.656C42.659 6.656 43.267 6.77333 43.779 7.008C44.291 7.24267 44.7283 7.56267 45.091 7.968C45.4537 8.37333 45.7737 8.84267 46.051 9.376H46.179L47.107 6.976H50.179L46.339 24.96C45.9763 26.7093 45.4217 28.096 44.675 29.12C43.9283 30.144 43.0217 30.88 41.955 31.328C40.8883 31.776 39.683 32 38.339 32ZM40.291 21.376C40.7177 21.376 41.123 21.2587 41.507 21.024C41.9123 20.7893 42.275 20.4587 42.595 20.032C42.9363 19.6053 43.2457 19.1147 43.523 18.56C43.8217 18.0053 44.067 17.408 44.259 16.768C44.451 16.128 44.6003 15.4773 44.707 14.816C44.8137 14.1333 44.867 13.4827 44.867 12.864C44.867 11.9893 44.675 11.2853 44.291 10.752C43.9283 10.1973 43.3737 9.92 42.627 9.92C42.115 9.92 41.635 10.08 41.187 10.4C40.739 10.72 40.323 11.168 39.939 11.744C39.5763 12.2987 39.2563 12.9387 38.979 13.664C38.723 14.3893 38.5203 15.1573 38.371 15.968C38.243 16.7787 38.179 17.6 38.179 18.432C38.179 19.4133 38.3603 20.1493 38.723 20.64C39.0857 21.1307 39.6083 21.376 40.291 21.376Z" fill="black"/>
<path d="M49.6525 24.32L54.8045 0H58.8045L57.7165 5.024C57.6312 5.42933 57.5245 5.87733 57.3965 6.368C57.2898 6.85867 57.1725 7.328 57.0445 7.776C56.9165 8.224 56.7992 8.61867 56.6925 8.96C56.6072 9.28 56.5432 9.504 56.5005 9.632H56.6285C57.0338 9.09867 57.4712 8.608 57.9405 8.16C58.4312 7.712 58.9645 7.34933 59.5405 7.072C60.1378 6.79467 60.7992 6.656 61.5245 6.656C62.4418 6.656 63.2098 6.848 63.8285 7.232C64.4685 7.59467 64.9378 8.128 65.2365 8.832C65.5565 9.536 65.7165 10.3787 65.7165 11.36C65.7165 11.7653 65.6845 12.2027 65.6205 12.672C65.5565 13.1413 65.4712 13.6427 65.3645 14.176L63.2525 24.32H59.2205L61.4285 13.92C61.5138 13.4933 61.5778 13.12 61.6205 12.8C61.6632 12.48 61.6845 12.192 61.6845 11.936C61.6845 11.2747 61.5458 10.7733 61.2685 10.432C60.9912 10.0907 60.5538 9.92 59.9565 9.92C59.3165 9.92 58.6872 10.208 58.0685 10.784C57.4712 11.3387 56.9165 12.1493 56.4045 13.216C55.9138 14.2827 55.5085 15.552 55.1885 17.024L53.6525 24.32H49.6525Z" fill="black"/>
<path d="M66.4967 24.32L71.3288 1.472H75.3607L71.2647 20.864H79.0727L78.3047 24.32H66.4967Z" fill="black"/>
<path d="M79.9837 24.32L83.6637 6.976H87.6637L83.9837 24.32H79.9837ZM86.4157 4.544C85.8397 4.544 85.3598 4.40533 84.9758 4.128C84.5918 3.85067 84.3997 3.40267 84.3997 2.784C84.3997 2.272 84.4958 1.83467 84.6878 1.472C84.9011 1.088 85.1891 0.8 85.5518 0.608C85.9358 0.394667 86.3838 0.288 86.8958 0.288C87.4718 0.288 87.9518 0.426667 88.3358 0.704C88.7198 0.960001 88.9118 1.38667 88.9118 1.984C88.9118 2.752 88.6984 3.37067 88.2718 3.84C87.8451 4.30933 87.2264 4.544 86.4157 4.544Z" fill="black"/>
<path d="M92.1578 32C91.0271 32 90.0458 31.8933 89.2138 31.68C88.3818 31.488 87.6244 31.2213 86.9417 30.88L86.9738 27.36C87.4431 27.616 87.9444 27.84 88.4778 28.032C89.0111 28.2453 89.5764 28.4053 90.1738 28.512C90.7924 28.64 91.4111 28.704 92.0298 28.704C93.1178 28.704 94.0138 28.4267 94.7178 27.872C95.4218 27.3173 95.9231 26.432 96.2218 25.216L96.4137 24.448C96.4778 24.1067 96.5631 23.744 96.6698 23.36C96.7764 22.9547 96.8724 22.6027 96.9577 22.304C97.0431 21.984 97.1071 21.7707 97.1497 21.664H97.0218C96.6378 22.1973 96.2111 22.688 95.7418 23.136C95.2938 23.584 94.7817 23.9467 94.2057 24.224C93.6511 24.5013 93.0217 24.64 92.3177 24.64C91.4857 24.64 90.7391 24.4267 90.0778 24C89.4164 23.552 88.8938 22.88 88.5098 21.984C88.1258 21.088 87.9338 19.9573 87.9338 18.592C87.9338 17.4187 88.0511 16.256 88.2858 15.104C88.5204 13.952 88.8618 12.8747 89.3098 11.872C89.7578 10.848 90.3017 9.94133 90.9417 9.152C91.5817 8.36267 92.3071 7.75467 93.1178 7.328C93.9284 6.88 94.8137 6.656 95.7738 6.656C96.4778 6.656 97.0857 6.77333 97.5977 7.008C98.1097 7.24267 98.5471 7.56267 98.9098 7.968C99.2724 8.37333 99.5924 8.84267 99.8698 9.376H99.9977L100.926 6.976H103.998L100.158 24.96C99.7951 26.7093 99.2404 28.096 98.4938 29.12C97.7471 30.144 96.8404 30.88 95.7738 31.328C94.7071 31.776 93.5018 32 92.1578 32ZM94.1097 21.376C94.5364 21.376 94.9418 21.2587 95.3258 21.024C95.7311 20.7893 96.0938 20.4587 96.4137 20.032C96.7551 19.6053 97.0644 19.1147 97.3418 18.56C97.6404 18.0053 97.8858 17.408 98.0778 16.768C98.2698 16.128 98.4191 15.4773 98.5257 14.816C98.6324 14.1333 98.6858 13.4827 98.6858 12.864C98.6858 11.9893 98.4937 11.2853 98.1097 10.752C97.7471 10.1973 97.1924 9.92 96.4458 9.92C95.9338 9.92 95.4538 10.08 95.0058 10.4C94.5578 10.72 94.1418 11.168 93.7578 11.744C93.3951 12.2987 93.0751 12.9387 92.7978 13.664C92.5418 14.3893 92.3391 15.1573 92.1898 15.968C92.0618 16.7787 91.9977 17.6 91.9977 18.432C91.9977 19.4133 92.1791 20.1493 92.5417 20.64C92.9044 21.1307 93.4271 21.376 94.1097 21.376Z" fill="black"/>
<path d="M103.471 24.32L108.623 0H112.623L111.535 5.024C111.45 5.42933 111.343 5.87733 111.215 6.368C111.109 6.85867 110.991 7.328 110.863 7.776C110.735 8.224 110.618 8.61867 110.511 8.96C110.426 9.28 110.362 9.504 110.319 9.632H110.447C110.853 9.09867 111.29 8.608 111.759 8.16C112.25 7.712 112.783 7.34933 113.359 7.072C113.957 6.79467 114.618 6.656 115.343 6.656C116.261 6.656 117.029 6.848 117.647 7.232C118.287 7.59467 118.757 8.128 119.055 8.832C119.375 9.536 119.535 10.3787 119.535 11.36C119.535 11.7653 119.503 12.2027 119.439 12.672C119.375 13.1413 119.29 13.6427 119.183 14.176L117.071 24.32H113.039L115.247 13.92C115.333 13.4933 115.397 13.12 115.439 12.8C115.482 12.48 115.503 12.192 115.503 11.936C115.503 11.2747 115.365 10.7733 115.087 10.432C114.81 10.0907 114.373 9.92 113.775 9.92C113.135 9.92 112.506 10.208 111.887 10.784C111.29 11.3387 110.735 12.1493 110.223 13.216C109.733 14.2827 109.327 15.552 109.007 17.024L107.471 24.32H103.471Z" fill="black"/>
<path d="M125.307 24.64C124.07 24.64 123.067 24.352 122.299 23.776C121.531 23.2 121.158 22.176 121.179 20.704C121.179 20.4267 121.201 20.128 121.243 19.808C121.286 19.4667 121.339 19.1147 121.403 18.752L123.227 10.016H120.859L121.275 8.096L124.188 6.816L126.139 3.2H128.699L127.899 6.976H132.059L131.387 10.016H127.227L125.403 18.784C125.361 18.976 125.318 19.1893 125.275 19.424C125.254 19.6373 125.243 19.84 125.243 20.032C125.222 20.4587 125.329 20.8 125.563 21.056C125.798 21.2907 126.139 21.408 126.587 21.408C126.993 21.408 127.377 21.3653 127.739 21.28C128.102 21.1733 128.508 21.0453 128.956 20.896L128.891 23.904C128.507 24.096 127.995 24.2667 127.355 24.416C126.715 24.5653 126.033 24.64 125.307 24.64Z" fill="black"/>
<path d="M130.24 24.32L133.92 6.976H137.92L134.24 24.32H130.24ZM136.672 4.544C136.096 4.544 135.616 4.40533 135.232 4.128C134.848 3.85067 134.656 3.40267 134.656 2.784C134.656 2.272 134.752 1.83467 134.944 1.472C135.157 1.088 135.445 0.8 135.808 0.608C136.192 0.394667 136.64 0.288 137.152 0.288C137.728 0.288 138.208 0.426667 138.592 0.704C138.976 0.960001 139.168 1.38667 139.168 1.984C139.168 2.752 138.955 3.37067 138.528 3.84C138.101 4.30933 137.483 4.544 136.672 4.544Z" fill="black"/>
<path d="M137.326 24.32L141.038 6.944H144.206L143.886 10.144H143.982C144.387 9.504 144.846 8.91733 145.358 8.384C145.87 7.85067 146.446 7.424 147.086 7.104C147.726 6.784 148.441 6.624 149.23 6.624C150.169 6.624 150.947 6.816 151.566 7.2C152.206 7.56267 152.686 8.096 153.006 8.8C153.326 9.504 153.486 10.336 153.486 11.296C153.486 11.744 153.443 12.224 153.358 12.736C153.294 13.2267 153.209 13.7173 153.102 14.208L150.99 24.32H146.926L149.134 13.888C149.219 13.4827 149.283 13.12 149.326 12.8C149.369 12.48 149.39 12.1813 149.39 11.904C149.39 11.2427 149.251 10.752 148.974 10.432C148.697 10.112 148.27 9.952 147.694 9.952C147.075 9.952 146.457 10.24 145.838 10.816C145.219 11.3707 144.665 12.1813 144.174 13.248C143.683 14.2933 143.278 15.552 142.958 17.024L141.39 24.32H137.326Z" fill="black"/>
<path d="M159.001 32C157.871 32 156.889 31.8933 156.057 31.68C155.225 31.488 154.468 31.2213 153.785 30.88L153.817 27.36C154.287 27.616 154.788 27.84 155.321 28.032C155.855 28.2453 156.42 28.4053 157.017 28.512C157.636 28.64 158.255 28.704 158.873 28.704C159.961 28.704 160.857 28.4267 161.561 27.872C162.265 27.3173 162.767 26.432 163.065 25.216L163.257 24.448C163.321 24.1067 163.407 23.744 163.513 23.36C163.62 22.9547 163.716 22.6027 163.801 22.304C163.887 21.984 163.951 21.7707 163.993 21.664H163.865C163.481 22.1973 163.055 22.688 162.585 23.136C162.137 23.584 161.625 23.9467 161.049 24.224C160.495 24.5013 159.865 24.64 159.161 24.64C158.329 24.64 157.583 24.4267 156.921 24C156.26 23.552 155.738 22.88 155.354 21.984C154.97 21.088 154.777 19.9573 154.777 18.592C154.777 17.4187 154.895 16.256 155.13 15.104C155.364 13.952 155.705 12.8747 156.153 11.872C156.601 10.848 157.145 9.94133 157.785 9.152C158.425 8.36267 159.151 7.75467 159.961 7.328C160.772 6.88 161.657 6.656 162.617 6.656C163.321 6.656 163.929 6.77333 164.441 7.008C164.953 7.24267 165.391 7.56267 165.753 7.968C166.116 8.37333 166.436 8.84267 166.714 9.376H166.841L167.77 6.976H170.841L167.001 24.96C166.639 26.7093 166.084 28.096 165.337 29.12C164.591 30.144 163.684 30.88 162.617 31.328C161.551 31.776 160.345 32 159.001 32ZM160.953 21.376C161.38 21.376 161.785 21.2587 162.169 21.024C162.575 20.7893 162.937 20.4587 163.257 20.032C163.599 19.6053 163.908 19.1147 164.186 18.56C164.484 18.0053 164.729 17.408 164.921 16.768C165.113 16.128 165.263 15.4773 165.369 14.816C165.476 14.1333 165.529 13.4827 165.529 12.864C165.529 11.9893 165.337 11.2853 164.953 10.752C164.591 10.1973 164.036 9.92 163.289 9.92C162.777 9.92 162.297 10.08 161.849 10.4C161.401 10.72 160.986 11.168 160.602 11.744C160.239 12.2987 159.919 12.9387 159.641 13.664C159.385 14.3893 159.183 15.1573 159.033 15.968C158.905 16.7787 158.841 17.6 158.841 18.432C158.841 19.4133 159.023 20.1493 159.385 20.64C159.748 21.1307 160.271 21.376 160.953 21.376Z" fill="black"/>
</svg>
